# xmcd
#
# Track frame offsets:
#	150
#	12820
#	23985
#	38312
#	49085
#	67430
#	75312
#	87745
#	102095
#	112522
#	123865
#	134352
#	153915
#	173387
#	186972
#	200057
#
# Disc length: 2854
#
# Revision: 1
# Processed by: cddbd v1.5.1PL0 Copyright (c) Steve Scherf et al.
# Submitted via: ExactAudioCopy v0.95a3
# Normalized: r0:TDELIM( - )
#
DISCID=c20b2410
DTITLE=Various Artist - Heart of Country Part 3
DYEAR=1900
DGENRE=Country
TTITLE0=Kitty Wells - Making Believe
TTITLE1=Ferlin Husky - San Antonio Rose
TTITLE2=Federation - Meet me on the Corner
TTITLE3=Freddy Fender - The Wild Side of Live
TTITLE4=Kenny Rogers - The King of Old Oak Street
TTITLE5=Jim Reeves - Till the End of the World
TTITLE6=Frankie Laine - High Noon
TTITLE7=Jim Reeves - Highway to Nowhere
TTITLE8=Gerald W Group - Money
TTITLE9=Rick Nelson - Poor little Fool
TTITLE10=Patsy Cline - Honky Tonk Merry Go Round
TTITLE11=Federation - Don't step out of Line
TTITLE12=Tina Turner - Lovin him was easier
TTITLE13=Tina Turner - Freedom to stay
TTITLE14=Kenny Rogers - Ruby Don't take your Love to Town
TTITLE15=Kenny Rogers - Sunshine
EXTD=
EXTT0=
EXTT1=
EXTT2=
EXTT3=
EXTT4=
EXTT5=
EXTT6=
EXTT7=
EXTT8=
EXTT9=
EXTT10=
EXTT11=
EXTT12=
EXTT13=
EXTT14=
EXTT15=
PLAYORDER=
